<mxfile host="app.diagrams.net" modified="2020-07-18T02:10:17.638Z" agent="5.0 (Macintosh; Intel Mac OS X 10_15_4) AppleWebKit/537.36 (KHTML, like Gecko) Chrome/83.0.4103.116 Safari/537.36" etag="l5ZNq6Vkq9X2QKkppA2w" version="13.4.6" type="github">
  <diagram id="TTvSSglgLCxyG-pp4QgG" name="Page-1">
    <mxGraphModel dx="946" dy="614" grid="1" gridSize="10" guides="1" tooltips="1" connect="1" arrows="1" fold="1" page="1" pageScale="1" pageWidth="827" pageHeight="1169" math="0" shadow="0">
      <root>
        <mxCell id="0" />
        <mxCell id="1" parent="0" />
        <mxCell id="HI6NWuzhiFTGf4Nthjht-1" value="订单" style="whiteSpace=wrap;html=1;align=center;" parent="1" vertex="1">
          <mxGeometry x="140" y="680" width="100" height="40" as="geometry" />
        </mxCell>
        <mxCell id="HI6NWuzhiFTGf4Nthjht-2" value="ID" style="ellipse;whiteSpace=wrap;html=1;align=center;flipV=1;" parent="1" vertex="1">
          <mxGeometry x="560" y="190" width="100" height="40" as="geometry" />
        </mxCell>
        <mxCell id="HI6NWuzhiFTGf4Nthjht-3" value="订单编号" style="ellipse;whiteSpace=wrap;html=1;align=center;flipV=1;" parent="1" vertex="1">
          <mxGeometry x="560" y="240" width="100" height="40" as="geometry" />
        </mxCell>
        <mxCell id="HI6NWuzhiFTGf4Nthjht-4" value="订单类型" style="ellipse;whiteSpace=wrap;html=1;align=center;flipV=1;" parent="1" vertex="1">
          <mxGeometry x="560" y="290" width="100" height="40" as="geometry" />
        </mxCell>
        <mxCell id="HI6NWuzhiFTGf4Nthjht-5" value="创建时间" style="ellipse;whiteSpace=wrap;html=1;align=center;flipV=1;" parent="1" vertex="1">
          <mxGeometry x="560" y="340" width="100" height="40" as="geometry" />
        </mxCell>
        <mxCell id="HI6NWuzhiFTGf4Nthjht-6" value="客户 ID" style="ellipse;whiteSpace=wrap;html=1;align=center;flipV=1;" parent="1" vertex="1">
          <mxGeometry x="560" y="390" width="100" height="40" as="geometry" />
        </mxCell>
        <mxCell id="HI6NWuzhiFTGf4Nthjht-7" value="货物类型" style="ellipse;whiteSpace=wrap;html=1;align=center;flipV=1;" parent="1" vertex="1">
          <mxGeometry x="560" y="440" width="100" height="40" as="geometry" />
        </mxCell>
        <mxCell id="HI6NWuzhiFTGf4Nthjht-8" value="货物数量" style="ellipse;whiteSpace=wrap;html=1;align=center;flipV=1;" parent="1" vertex="1">
          <mxGeometry x="560" y="490" width="100" height="40" as="geometry" />
        </mxCell>
        <mxCell id="HI6NWuzhiFTGf4Nthjht-9" value="订单金额" style="ellipse;whiteSpace=wrap;html=1;align=center;flipV=1;" parent="1" vertex="1">
          <mxGeometry x="560" y="544" width="100" height="40" as="geometry" />
        </mxCell>
        <mxCell id="HI6NWuzhiFTGf4Nthjht-10" value="期望配送时间" style="ellipse;whiteSpace=wrap;html=1;align=center;flipV=1;" parent="1" vertex="1">
          <mxGeometry x="560" y="600" width="100" height="40" as="geometry" />
        </mxCell>
        <mxCell id="HI6NWuzhiFTGf4Nthjht-11" value="实际配送时间" style="ellipse;whiteSpace=wrap;html=1;align=center;flipV=1;" parent="1" vertex="1">
          <mxGeometry x="560" y="650" width="100" height="40" as="geometry" />
        </mxCell>
        <mxCell id="HI6NWuzhiFTGf4Nthjht-12" value="开始配送时间" style="ellipse;whiteSpace=wrap;html=1;align=center;flipV=1;" parent="1" vertex="1">
          <mxGeometry x="560" y="700" width="100" height="40" as="geometry" />
        </mxCell>
        <mxCell id="HI6NWuzhiFTGf4Nthjht-13" value="结束配送时间" style="ellipse;whiteSpace=wrap;html=1;align=center;flipV=1;" parent="1" vertex="1">
          <mxGeometry x="560" y="750" width="100" height="40" as="geometry" />
        </mxCell>
        <mxCell id="HI6NWuzhiFTGf4Nthjht-14" value="目的地经度" style="ellipse;whiteSpace=wrap;html=1;align=center;flipV=1;" parent="1" vertex="1">
          <mxGeometry x="560" y="800" width="100" height="40" as="geometry" />
        </mxCell>
        <mxCell id="HI6NWuzhiFTGf4Nthjht-15" value="目的地纬度" style="ellipse;whiteSpace=wrap;html=1;align=center;flipV=1;" parent="1" vertex="1">
          <mxGeometry x="560" y="855" width="100" height="40" as="geometry" />
        </mxCell>
        <mxCell id="HI6NWuzhiFTGf4Nthjht-16" value="出发地经度" style="ellipse;whiteSpace=wrap;html=1;align=center;flipV=1;" parent="1" vertex="1">
          <mxGeometry x="560" y="910" width="100" height="40" as="geometry" />
        </mxCell>
        <mxCell id="HI6NWuzhiFTGf4Nthjht-17" value="出发地纬度" style="ellipse;whiteSpace=wrap;html=1;align=center;flipV=1;" parent="1" vertex="1">
          <mxGeometry x="560" y="961" width="100" height="40" as="geometry" />
        </mxCell>
        <mxCell id="HI6NWuzhiFTGf4Nthjht-18" value="配送人" style="ellipse;whiteSpace=wrap;html=1;align=center;flipV=1;" parent="1" vertex="1">
          <mxGeometry x="560" y="1011" width="100" height="40" as="geometry" />
        </mxCell>
        <mxCell id="HI6NWuzhiFTGf4Nthjht-19" value="客户评分" style="ellipse;whiteSpace=wrap;html=1;align=center;flipV=1;" parent="1" vertex="1">
          <mxGeometry x="560" y="1060" width="100" height="40" as="geometry" />
        </mxCell>
        <mxCell id="HI6NWuzhiFTGf4Nthjht-20" value="" style="endArrow=none;html=1;rounded=0;exitX=1;exitY=0.5;exitDx=0;exitDy=0;entryX=0;entryY=0.5;entryDx=0;entryDy=0;" parent="1" source="HI6NWuzhiFTGf4Nthjht-1" target="HI6NWuzhiFTGf4Nthjht-2" edge="1">
          <mxGeometry relative="1" as="geometry">
            <mxPoint x="330" y="390" as="sourcePoint" />
            <mxPoint x="490" y="390" as="targetPoint" />
          </mxGeometry>
        </mxCell>
        <mxCell id="HI6NWuzhiFTGf4Nthjht-23" value="" style="endArrow=none;html=1;rounded=0;entryX=0;entryY=0.5;entryDx=0;entryDy=0;exitX=1;exitY=0.5;exitDx=0;exitDy=0;" parent="1" source="HI6NWuzhiFTGf4Nthjht-1" target="HI6NWuzhiFTGf4Nthjht-3" edge="1">
          <mxGeometry relative="1" as="geometry">
            <mxPoint x="390" y="280" as="sourcePoint" />
            <mxPoint x="550" y="280" as="targetPoint" />
          </mxGeometry>
        </mxCell>
        <mxCell id="HI6NWuzhiFTGf4Nthjht-26" value="" style="endArrow=none;html=1;rounded=0;exitX=1;exitY=0.5;exitDx=0;exitDy=0;entryX=0;entryY=0.5;entryDx=0;entryDy=0;" parent="1" source="HI6NWuzhiFTGf4Nthjht-1" target="HI6NWuzhiFTGf4Nthjht-4" edge="1">
          <mxGeometry relative="1" as="geometry">
            <mxPoint x="400" y="350" as="sourcePoint" />
            <mxPoint x="560" y="350" as="targetPoint" />
          </mxGeometry>
        </mxCell>
        <mxCell id="HI6NWuzhiFTGf4Nthjht-27" value="" style="endArrow=none;html=1;rounded=0;exitX=1;exitY=0.5;exitDx=0;exitDy=0;entryX=0;entryY=0.5;entryDx=0;entryDy=0;" parent="1" source="HI6NWuzhiFTGf4Nthjht-1" target="HI6NWuzhiFTGf4Nthjht-5" edge="1">
          <mxGeometry relative="1" as="geometry">
            <mxPoint x="400" y="420" as="sourcePoint" />
            <mxPoint x="560" y="420" as="targetPoint" />
          </mxGeometry>
        </mxCell>
        <mxCell id="HI6NWuzhiFTGf4Nthjht-28" value="" style="endArrow=none;html=1;rounded=0;exitX=1;exitY=0.5;exitDx=0;exitDy=0;entryX=0;entryY=0.5;entryDx=0;entryDy=0;" parent="1" source="HI6NWuzhiFTGf4Nthjht-1" target="HI6NWuzhiFTGf4Nthjht-6" edge="1">
          <mxGeometry relative="1" as="geometry">
            <mxPoint x="400" y="490" as="sourcePoint" />
            <mxPoint x="560" y="490" as="targetPoint" />
          </mxGeometry>
        </mxCell>
        <mxCell id="HI6NWuzhiFTGf4Nthjht-29" value="" style="endArrow=none;html=1;rounded=0;entryX=0;entryY=0.5;entryDx=0;entryDy=0;exitX=1;exitY=0.5;exitDx=0;exitDy=0;" parent="1" source="HI6NWuzhiFTGf4Nthjht-1" target="HI6NWuzhiFTGf4Nthjht-7" edge="1">
          <mxGeometry relative="1" as="geometry">
            <mxPoint x="390" y="560" as="sourcePoint" />
            <mxPoint x="550" y="560" as="targetPoint" />
          </mxGeometry>
        </mxCell>
        <mxCell id="HI6NWuzhiFTGf4Nthjht-30" value="" style="endArrow=none;html=1;rounded=0;exitX=1;exitY=0.5;exitDx=0;exitDy=0;entryX=0;entryY=0.5;entryDx=0;entryDy=0;" parent="1" source="HI6NWuzhiFTGf4Nthjht-1" target="HI6NWuzhiFTGf4Nthjht-8" edge="1">
          <mxGeometry relative="1" as="geometry">
            <mxPoint x="400" y="630" as="sourcePoint" />
            <mxPoint x="560" y="630" as="targetPoint" />
          </mxGeometry>
        </mxCell>
        <mxCell id="HI6NWuzhiFTGf4Nthjht-31" value="" style="endArrow=none;html=1;rounded=0;exitX=1;exitY=0.5;exitDx=0;exitDy=0;entryX=0;entryY=0.5;entryDx=0;entryDy=0;" parent="1" source="HI6NWuzhiFTGf4Nthjht-1" target="HI6NWuzhiFTGf4Nthjht-9" edge="1">
          <mxGeometry relative="1" as="geometry">
            <mxPoint x="400" y="700" as="sourcePoint" />
            <mxPoint x="560" y="700" as="targetPoint" />
          </mxGeometry>
        </mxCell>
        <mxCell id="HI6NWuzhiFTGf4Nthjht-32" value="" style="endArrow=none;html=1;rounded=0;exitX=1;exitY=0.5;exitDx=0;exitDy=0;entryX=0;entryY=0.5;entryDx=0;entryDy=0;" parent="1" source="HI6NWuzhiFTGf4Nthjht-1" target="HI6NWuzhiFTGf4Nthjht-10" edge="1">
          <mxGeometry relative="1" as="geometry">
            <mxPoint x="400" y="780" as="sourcePoint" />
            <mxPoint x="560" y="780" as="targetPoint" />
          </mxGeometry>
        </mxCell>
        <mxCell id="HI6NWuzhiFTGf4Nthjht-33" value="" style="endArrow=none;html=1;rounded=0;exitX=1;exitY=0.5;exitDx=0;exitDy=0;entryX=0;entryY=0.5;entryDx=0;entryDy=0;" parent="1" source="HI6NWuzhiFTGf4Nthjht-1" target="HI6NWuzhiFTGf4Nthjht-11" edge="1">
          <mxGeometry relative="1" as="geometry">
            <mxPoint x="400" y="860" as="sourcePoint" />
            <mxPoint x="560" y="860" as="targetPoint" />
          </mxGeometry>
        </mxCell>
        <mxCell id="HI6NWuzhiFTGf4Nthjht-34" value="" style="endArrow=none;html=1;rounded=0;exitX=1;exitY=0.5;exitDx=0;exitDy=0;entryX=0;entryY=0.5;entryDx=0;entryDy=0;" parent="1" source="HI6NWuzhiFTGf4Nthjht-1" target="HI6NWuzhiFTGf4Nthjht-12" edge="1">
          <mxGeometry relative="1" as="geometry">
            <mxPoint x="400" y="930" as="sourcePoint" />
            <mxPoint x="560" y="930" as="targetPoint" />
          </mxGeometry>
        </mxCell>
        <mxCell id="HI6NWuzhiFTGf4Nthjht-35" value="" style="endArrow=none;html=1;rounded=0;exitX=1;exitY=0.5;exitDx=0;exitDy=0;entryX=0;entryY=0.5;entryDx=0;entryDy=0;" parent="1" source="HI6NWuzhiFTGf4Nthjht-1" target="HI6NWuzhiFTGf4Nthjht-13" edge="1">
          <mxGeometry relative="1" as="geometry">
            <mxPoint x="400" y="1000" as="sourcePoint" />
            <mxPoint x="560" y="1000" as="targetPoint" />
          </mxGeometry>
        </mxCell>
        <mxCell id="HI6NWuzhiFTGf4Nthjht-36" value="" style="endArrow=none;html=1;rounded=0;exitX=1;exitY=0.5;exitDx=0;exitDy=0;entryX=0;entryY=0.5;entryDx=0;entryDy=0;" parent="1" source="HI6NWuzhiFTGf4Nthjht-1" target="HI6NWuzhiFTGf4Nthjht-14" edge="1">
          <mxGeometry relative="1" as="geometry">
            <mxPoint x="400" y="1070" as="sourcePoint" />
            <mxPoint x="560" y="1070" as="targetPoint" />
          </mxGeometry>
        </mxCell>
        <mxCell id="HI6NWuzhiFTGf4Nthjht-37" value="" style="endArrow=none;html=1;rounded=0;exitX=1;exitY=0.5;exitDx=0;exitDy=0;entryX=0;entryY=0.5;entryDx=0;entryDy=0;" parent="1" source="HI6NWuzhiFTGf4Nthjht-1" target="HI6NWuzhiFTGf4Nthjht-15" edge="1">
          <mxGeometry relative="1" as="geometry">
            <mxPoint x="400" y="1140" as="sourcePoint" />
            <mxPoint x="560" y="1140" as="targetPoint" />
          </mxGeometry>
        </mxCell>
        <mxCell id="HI6NWuzhiFTGf4Nthjht-38" value="" style="endArrow=none;html=1;rounded=0;entryX=0;entryY=0.5;entryDx=0;entryDy=0;exitX=1;exitY=0.5;exitDx=0;exitDy=0;" parent="1" source="HI6NWuzhiFTGf4Nthjht-1" target="HI6NWuzhiFTGf4Nthjht-16" edge="1">
          <mxGeometry relative="1" as="geometry">
            <mxPoint x="400" y="1210" as="sourcePoint" />
            <mxPoint x="560" y="1210" as="targetPoint" />
          </mxGeometry>
        </mxCell>
        <mxCell id="HI6NWuzhiFTGf4Nthjht-39" value="" style="endArrow=none;html=1;rounded=0;entryX=0;entryY=0.5;entryDx=0;entryDy=0;exitX=1;exitY=0.5;exitDx=0;exitDy=0;" parent="1" source="HI6NWuzhiFTGf4Nthjht-1" target="HI6NWuzhiFTGf4Nthjht-17" edge="1">
          <mxGeometry relative="1" as="geometry">
            <mxPoint x="370" y="980" as="sourcePoint" />
            <mxPoint x="530" y="980" as="targetPoint" />
          </mxGeometry>
        </mxCell>
        <mxCell id="HI6NWuzhiFTGf4Nthjht-40" value="" style="endArrow=none;html=1;rounded=0;entryX=0;entryY=0.5;entryDx=0;entryDy=0;exitX=1;exitY=0.5;exitDx=0;exitDy=0;" parent="1" source="HI6NWuzhiFTGf4Nthjht-1" target="HI6NWuzhiFTGf4Nthjht-18" edge="1">
          <mxGeometry relative="1" as="geometry">
            <mxPoint x="360" y="1020" as="sourcePoint" />
            <mxPoint x="520" y="1020" as="targetPoint" />
          </mxGeometry>
        </mxCell>
        <mxCell id="HI6NWuzhiFTGf4Nthjht-41" value="" style="endArrow=none;html=1;rounded=0;entryX=0;entryY=0.5;entryDx=0;entryDy=0;exitX=1;exitY=0.5;exitDx=0;exitDy=0;" parent="1" source="HI6NWuzhiFTGf4Nthjht-1" target="HI6NWuzhiFTGf4Nthjht-19" edge="1">
          <mxGeometry relative="1" as="geometry">
            <mxPoint x="330" y="1070" as="sourcePoint" />
            <mxPoint x="490" y="1070" as="targetPoint" />
          </mxGeometry>
        </mxCell>
        <mxCell id="wChaM4UhZpYK5YsZdDve-1" value="驾驶员" style="whiteSpace=wrap;html=1;align=center;" vertex="1" parent="1">
          <mxGeometry x="430" y="1400" width="100" height="40" as="geometry" />
        </mxCell>
        <mxCell id="wChaM4UhZpYK5YsZdDve-20" value="" style="endArrow=none;html=1;rounded=0;exitX=1;exitY=0.5;exitDx=0;exitDy=0;entryX=0;entryY=0.5;entryDx=0;entryDy=0;" edge="1" source="wChaM4UhZpYK5YsZdDve-1" target="wChaM4UhZpYK5YsZdDve-2" parent="1">
          <mxGeometry relative="1" as="geometry">
            <mxPoint x="380" y="1450" as="sourcePoint" />
            <mxPoint x="540" y="1450" as="targetPoint" />
          </mxGeometry>
        </mxCell>
        <mxCell id="wChaM4UhZpYK5YsZdDve-21" value="" style="endArrow=none;html=1;rounded=0;entryX=0;entryY=0.5;entryDx=0;entryDy=0;exitX=1;exitY=0.5;exitDx=0;exitDy=0;" edge="1" source="wChaM4UhZpYK5YsZdDve-1" target="wChaM4UhZpYK5YsZdDve-3" parent="1">
          <mxGeometry relative="1" as="geometry">
            <mxPoint x="440" y="1340" as="sourcePoint" />
            <mxPoint x="600" y="1340" as="targetPoint" />
          </mxGeometry>
        </mxCell>
        <mxCell id="wChaM4UhZpYK5YsZdDve-22" value="" style="endArrow=none;html=1;rounded=0;exitX=1;exitY=0.5;exitDx=0;exitDy=0;entryX=0;entryY=0.5;entryDx=0;entryDy=0;" edge="1" source="wChaM4UhZpYK5YsZdDve-1" target="wChaM4UhZpYK5YsZdDve-4" parent="1">
          <mxGeometry relative="1" as="geometry">
            <mxPoint x="450" y="1410" as="sourcePoint" />
            <mxPoint x="610" y="1410" as="targetPoint" />
          </mxGeometry>
        </mxCell>
        <mxCell id="wChaM4UhZpYK5YsZdDve-23" value="" style="endArrow=none;html=1;rounded=0;exitX=1;exitY=0.5;exitDx=0;exitDy=0;entryX=0;entryY=0.5;entryDx=0;entryDy=0;" edge="1" source="wChaM4UhZpYK5YsZdDve-1" target="wChaM4UhZpYK5YsZdDve-5" parent="1">
          <mxGeometry relative="1" as="geometry">
            <mxPoint x="450" y="1480" as="sourcePoint" />
            <mxPoint x="610" y="1480" as="targetPoint" />
          </mxGeometry>
        </mxCell>
        <mxCell id="wChaM4UhZpYK5YsZdDve-24" value="" style="endArrow=none;html=1;rounded=0;exitX=1;exitY=0.5;exitDx=0;exitDy=0;entryX=0;entryY=0.5;entryDx=0;entryDy=0;" edge="1" source="wChaM4UhZpYK5YsZdDve-1" target="wChaM4UhZpYK5YsZdDve-6" parent="1">
          <mxGeometry relative="1" as="geometry">
            <mxPoint x="450" y="1550" as="sourcePoint" />
            <mxPoint x="610" y="1550" as="targetPoint" />
          </mxGeometry>
        </mxCell>
        <mxCell id="wChaM4UhZpYK5YsZdDve-25" value="" style="endArrow=none;html=1;rounded=0;entryX=0;entryY=0.5;entryDx=0;entryDy=0;exitX=1;exitY=0.5;exitDx=0;exitDy=0;" edge="1" source="wChaM4UhZpYK5YsZdDve-1" target="wChaM4UhZpYK5YsZdDve-7" parent="1">
          <mxGeometry relative="1" as="geometry">
            <mxPoint x="440" y="1620" as="sourcePoint" />
            <mxPoint x="600" y="1620" as="targetPoint" />
          </mxGeometry>
        </mxCell>
        <mxCell id="wChaM4UhZpYK5YsZdDve-26" value="" style="endArrow=none;html=1;rounded=0;exitX=1;exitY=0.5;exitDx=0;exitDy=0;entryX=0;entryY=0.5;entryDx=0;entryDy=0;" edge="1" source="wChaM4UhZpYK5YsZdDve-1" target="wChaM4UhZpYK5YsZdDve-8" parent="1">
          <mxGeometry relative="1" as="geometry">
            <mxPoint x="450" y="1690" as="sourcePoint" />
            <mxPoint x="610" y="1690" as="targetPoint" />
          </mxGeometry>
        </mxCell>
        <mxCell id="wChaM4UhZpYK5YsZdDve-38" value="" style="group" vertex="1" connectable="0" parent="1">
          <mxGeometry x="610" y="1250" width="100" height="340" as="geometry" />
        </mxCell>
        <mxCell id="wChaM4UhZpYK5YsZdDve-2" value="ID" style="ellipse;whiteSpace=wrap;html=1;align=center;flipV=1;" vertex="1" parent="wChaM4UhZpYK5YsZdDve-38">
          <mxGeometry width="100" height="40" as="geometry" />
        </mxCell>
        <mxCell id="wChaM4UhZpYK5YsZdDve-3" value="驾驶员编号" style="ellipse;whiteSpace=wrap;html=1;align=center;flipV=1;" vertex="1" parent="wChaM4UhZpYK5YsZdDve-38">
          <mxGeometry y="50" width="100" height="40" as="geometry" />
        </mxCell>
        <mxCell id="wChaM4UhZpYK5YsZdDve-4" value="姓名" style="ellipse;whiteSpace=wrap;html=1;align=center;flipV=1;" vertex="1" parent="wChaM4UhZpYK5YsZdDve-38">
          <mxGeometry y="100" width="100" height="40" as="geometry" />
        </mxCell>
        <mxCell id="wChaM4UhZpYK5YsZdDve-5" value="驾龄" style="ellipse;whiteSpace=wrap;html=1;align=center;flipV=1;" vertex="1" parent="wChaM4UhZpYK5YsZdDve-38">
          <mxGeometry y="150" width="100" height="40" as="geometry" />
        </mxCell>
        <mxCell id="wChaM4UhZpYK5YsZdDve-6" value="工龄" style="ellipse;whiteSpace=wrap;html=1;align=center;flipV=1;" vertex="1" parent="wChaM4UhZpYK5YsZdDve-38">
          <mxGeometry y="200" width="100" height="40" as="geometry" />
        </mxCell>
        <mxCell id="wChaM4UhZpYK5YsZdDve-7" value="驾照级别" style="ellipse;whiteSpace=wrap;html=1;align=center;flipV=1;" vertex="1" parent="wChaM4UhZpYK5YsZdDve-38">
          <mxGeometry y="250" width="100" height="40" as="geometry" />
        </mxCell>
        <mxCell id="wChaM4UhZpYK5YsZdDve-8" value="车辆编号" style="ellipse;whiteSpace=wrap;html=1;align=center;flipV=1;" vertex="1" parent="wChaM4UhZpYK5YsZdDve-38">
          <mxGeometry y="300" width="100" height="40" as="geometry" />
        </mxCell>
      </root>
    </mxGraphModel>
  </diagram>
</mxfile>
